<mxfile host="app.diagrams.net" modified="2022-09-08T08:29:14.287Z" agent="5.0 (Windows NT 10.0; Win64; x64) AppleWebKit/537.36 (KHTML, like Gecko) Chrome/105.0.0.0 Safari/537.36" etag="R2EdeXkkDKRi68g0Rj4c" version="20.3.0" type="github">
  <diagram id="TZSw-0tbahDmOpf1qpmQ" name="第 1 页">
    <mxGraphModel dx="782" dy="412" grid="1" gridSize="10" guides="1" tooltips="1" connect="1" arrows="1" fold="1" page="1" pageScale="1" pageWidth="827" pageHeight="1169" math="0" shadow="0">
      <root>
        <mxCell id="0" />
        <mxCell id="1" parent="0" />
        <mxCell id="pjwgIsAlVQDhB30NkZ4e-10" value="1:n" style="edgeStyle=orthogonalEdgeStyle;rounded=0;orthogonalLoop=1;jettySize=auto;html=1;exitX=0.5;exitY=1;exitDx=0;exitDy=0;entryX=0.5;entryY=0;entryDx=0;entryDy=0;" edge="1" parent="1" source="pjwgIsAlVQDhB30NkZ4e-1" target="pjwgIsAlVQDhB30NkZ4e-4">
          <mxGeometry relative="1" as="geometry" />
        </mxCell>
        <mxCell id="pjwgIsAlVQDhB30NkZ4e-1" value="探测Handler" style="rounded=1;whiteSpace=wrap;html=1;" vertex="1" parent="1">
          <mxGeometry x="220" y="120" width="120" height="60" as="geometry" />
        </mxCell>
        <mxCell id="pjwgIsAlVQDhB30NkZ4e-2" value="降级策略" style="rounded=1;whiteSpace=wrap;html=1;" vertex="1" parent="1">
          <mxGeometry x="450" y="360" width="120" height="60" as="geometry" />
        </mxCell>
        <mxCell id="pjwgIsAlVQDhB30NkZ4e-6" value="1:1" style="edgeStyle=orthogonalEdgeStyle;rounded=0;orthogonalLoop=1;jettySize=auto;html=1;entryX=1;entryY=0.5;entryDx=0;entryDy=0;" edge="1" parent="1" source="pjwgIsAlVQDhB30NkZ4e-3" target="pjwgIsAlVQDhB30NkZ4e-1">
          <mxGeometry relative="1" as="geometry" />
        </mxCell>
        <mxCell id="pjwgIsAlVQDhB30NkZ4e-3" value="状态管理" style="rounded=1;whiteSpace=wrap;html=1;" vertex="1" parent="1">
          <mxGeometry x="440" y="120" width="120" height="60" as="geometry" />
        </mxCell>
        <mxCell id="pjwgIsAlVQDhB30NkZ4e-4" value="通知事件" style="rounded=1;whiteSpace=wrap;html=1;" vertex="1" parent="1">
          <mxGeometry x="220" y="240" width="120" height="60" as="geometry" />
        </mxCell>
        <mxCell id="pjwgIsAlVQDhB30NkZ4e-8" value="1:n" style="edgeStyle=orthogonalEdgeStyle;rounded=0;orthogonalLoop=1;jettySize=auto;html=1;exitX=0.5;exitY=0;exitDx=0;exitDy=0;entryX=0.5;entryY=1;entryDx=0;entryDy=0;" edge="1" parent="1" source="pjwgIsAlVQDhB30NkZ4e-5" target="pjwgIsAlVQDhB30NkZ4e-4">
          <mxGeometry relative="1" as="geometry" />
        </mxCell>
        <mxCell id="pjwgIsAlVQDhB30NkZ4e-9" value="1:n" style="edgeStyle=orthogonalEdgeStyle;rounded=0;orthogonalLoop=1;jettySize=auto;html=1;exitX=1;exitY=0.5;exitDx=0;exitDy=0;entryX=0;entryY=0.5;entryDx=0;entryDy=0;" edge="1" parent="1" source="pjwgIsAlVQDhB30NkZ4e-5" target="pjwgIsAlVQDhB30NkZ4e-2">
          <mxGeometry relative="1" as="geometry" />
        </mxCell>
        <mxCell id="pjwgIsAlVQDhB30NkZ4e-5" value="降级处理" style="rounded=1;whiteSpace=wrap;html=1;" vertex="1" parent="1">
          <mxGeometry x="220" y="360" width="120" height="60" as="geometry" />
        </mxCell>
      </root>
    </mxGraphModel>
  </diagram>
</mxfile>
